<svg width="146" height="36" xmlns="http://www.w3.org/2000/svg" fill="none">
  <g>
  <path id="svg_1" fill="#141624" d="m45.0024,27.8182l0,-18.28639l1.7296,0l6.9184,9.96549l-0.9636,0l6.8937,-9.96549l1.7295,0l0,18.28639l-1.9766,0l0,-15.6355l0.6424,0.2455l-6.7701,9.7445l-0.0989,0l-6.7454,-9.7445l0.6177,-0.2455l0,15.6355l-1.9767,0z"/>
  <path id="svg_2" fill="#141624" d="m70.9144,27.85845c-1.2354,0 -2.3556,-0.2945 -3.3604,-0.8836c-0.9883,-0.6055 -1.7708,-1.4318 -2.3473,-2.4791c-0.5765,-1.0473 -0.8648,-2.2336 -0.8648,-3.5591c0,-1.3254 0.28,-2.4954 0.8401,-3.51c0.5601,-1.0309 1.3178,-1.8409 2.2732,-2.43c0.9719,-0.5891 2.059,-0.8836 3.2615,-0.8836c0.9554,0 1.8037,0.18 2.545,0.54c0.7577,0.3436 1.4001,0.8182 1.9272,1.4236c0.5272,0.5891 0.9307,1.26 1.2108,2.0127c0.28,0.7364 0.42,1.4973 0.42,2.2828c0,0.1636 -0.0082,0.3518 -0.0247,0.5645c-0.0165,0.1964 -0.0412,0.4009 -0.0741,0.6136l-11.193,0l0,-1.7181l10.1305,0l-0.8895,0.7363c0.1483,-0.9 0.0412,-1.7018 -0.3212,-2.4054c-0.3459,-0.72 -0.8483,-1.2846 -1.5072,-1.6937c-0.6589,-0.4254 -1.4002,-0.6381 -2.2238,-0.6381c-0.8236,0 -1.5896,0.2127 -2.2979,0.6381c-0.6918,0.4255 -1.2354,1.0228 -1.6307,1.7919c-0.3954,0.7527 -0.5519,1.6527 -0.4695,2.7c-0.0824,1.0472 0.0824,1.9636 0.4942,2.749c0.4282,0.7691 1.0048,1.3664 1.7296,1.7919c0.7412,0.4254 1.2752,0.6381 2.372,0.6381c1.0968,0 1.7872,-0.229 2.4461,-0.6872c0.6589,-0.4582 1.1943,-1.0309 1.6061,-1.7182l1.5813,0.8345c-0.2635,0.5891 -0.6671,1.1373 -1.2107,1.6446c-0.5436,0.4909 -1.1942,0.8918 -1.952,1.2027c-0.7412,0.2946 -1.5648,0.4418 -2.4708,0.4418z"/>
  <path id="svg_5" fill="#141624" d="m94.28093,27.72652l0,-18.28638l7.784,0c1.268,0 2.355,0.21273 3.261,0.63818c0.906,0.4255 1.598,1.0391 2.076,1.8409c0.477,0.7855 0.716,1.7427 0.716,2.8718c0,0.8019 -0.222,1.5709 -0.667,2.3073c-0.445,0.72 -1.178,1.3255 -2.199,1.8164l0,-1.8655c0.972,0.3764 1.721,0.8264 2.249,1.35c0.527,0.5237 0.889,1.0964 1.087,1.7182c0.197,0.6055 0.296,1.2436 0.296,1.9145c0,1.8 -0.601,3.1991 -1.804,4.1973c-1.202,0.9982 -2.874,1.4973 -5.015,1.4973l-7.784,0zm3.83,-3.3136l4.398,0c0.775,0 1.392,-0.221 1.854,-0.6628c0.461,-0.4418 0.691,-1.0145 0.691,-1.7182c0,-0.72 -0.23,-1.3009 -0.691,-1.7427c-0.462,-0.4418 -1.079,-0.6627 -1.854,-0.6627l-4.398,0l0,4.7864zm0,-8.1l4.225,0c0.593,0 1.063,-0.1637 1.409,-0.491c0.362,-0.3436 0.543,-0.7936 0.543,-1.35c0,-0.5563 -0.181,-0.9981 -0.543,-1.3254c-0.346,-0.3436 -0.816,-0.5155 -1.409,-0.5155l-4.225,0l0,3.6819z"/>
  <path id="svg_6" fill="#141624" d="m111.01505,27.5057l0,-18.58092l3.706,0l0,18.58092l-3.706,0z"/>
  <path id="svg_7" fill="#141624" d="m123.95326,27.80912c-1.335,0 -2.554,-0.3027 -3.657,-0.9081c-1.087,-0.6055 -1.96,-1.4319 -2.619,-2.4791c-0.643,-1.0637 -0.964,-2.2664 -0.964,-3.6082c0,-1.3582 0.321,-2.5609 0.964,-3.6082c0.659,-1.0473 1.532,-1.8736 2.619,-2.4791c1.103,-0.6054 2.322,-0.9082 3.657,-0.9082c1.334,0 2.545,0.3028 3.632,0.9082c1.087,0.6055 1.952,1.4318 2.594,2.4791c0.659,1.0473 0.988,2.25 0.988,3.6082c0,1.3418 -0.329,2.5445 -0.988,3.6082c-0.642,1.0472 -1.507,1.8736 -2.594,2.4791c-1.087,0.6054 -2.298,0.9081 -3.632,0.9081zm0,-3.3136c0.675,0 1.26,-0.1555 1.754,-0.4664c0.511,-0.3109 0.906,-0.7445 1.186,-1.3009c0.296,-0.5563 0.445,-1.1945 0.445,-1.9145c0,-0.72 -0.149,-1.35 -0.445,-1.89c-0.28,-0.5564 -0.675,-0.99 -1.186,-1.3009c-0.494,-0.3273 -1.079,-0.4909 -1.754,-0.4909c-0.676,0 -1.269,0.1636 -1.779,0.4909c-0.511,0.3109 -0.915,0.7445 -1.211,1.3009c-0.28,0.54 -0.42,1.17 -0.42,1.89c0,0.72 0.14,1.3582 0.42,1.9145c0.296,0.5564 0.7,0.99 1.211,1.3009c0.51,0.3109 1.103,0.4664 1.779,0.4664z"/>
  <path id="svg_8" fill="#141624" d="m139.29826,32.97355c-1.038,0 -2.002,-0.1718 -2.891,-0.5155c-0.89,-0.3436 -1.656,-0.8263 -2.298,-1.4481c-0.626,-0.6055 -1.079,-1.3255 -1.359,-2.16l3.435,-1.2028c0.181,0.6218 0.551,1.1128 1.111,1.4728c0.56,0.36 1.228,0.54 2.002,0.54c0.609,0 1.136,-0.1146 1.581,-0.3437c0.445,-0.2127 0.783,-0.5318 1.013,-0.9573c0.247,-0.4254 0.371,-0.9245 0.371,-1.4972l0,-3.0682l0.716,0.8836c-0.461,0.7528 -1.054,1.3173 -1.779,1.6937c-0.724,0.36 -1.573,0.54 -2.545,0.54c-1.252,0 -2.372,-0.2782 -3.36,-0.8346c-0.988,-0.5727 -1.763,-1.35 -2.323,-2.3318c-0.56,-0.9982 -0.84,-2.1273 -0.84,-3.3873c0,-1.26 0.28,-2.3727 0.84,-3.3382c0.56,-0.9818 1.326,-1.7509 2.298,-2.3072c0.972,-0.5564 2.076,-0.8346 3.311,-0.8346c0.972,0 1.82,0.1964 2.545,0.5891c0.725,0.3764 1.343,0.9573 1.853,1.7427l-0.469,0.8837l0,-2.9209l3.459,0l0,12.69c0,1.1782 -0.288,2.2254 -0.865,3.1418c-0.576,0.9327 -1.367,1.6609 -2.372,2.1845c-0.988,0.5237 -2.133,0.7855 -3.434,0.7855zm-0.124,-9.4009c0.626,0 1.17,-0.1309 1.631,-0.3927c0.461,-0.2619 0.815,-0.63 1.062,-1.1046c0.264,-0.4745 0.396,-1.0309 0.396,-1.6691c0,-0.6382 -0.132,-1.1945 -0.396,-1.6691c-0.263,-0.4909 -0.625,-0.8672 -1.087,-1.1291c-0.461,-0.2781 -0.996,-0.4172 -1.606,-0.4172c-0.626,0 -1.186,0.1391 -1.68,0.4172c-0.478,0.2619 -0.857,0.6382 -1.137,1.1291c-0.263,0.4746 -0.395,1.0309 -0.395,1.6691c0,0.6218 0.132,1.17 0.395,1.6446c0.28,0.4745 0.659,0.8509 1.137,1.1291c0.494,0.2618 1.054,0.3927 1.68,0.3927z"/>
  <path id="svg_9" fill="#141624" d="m18,36c9.9411,0 18,-8.0589 18,-18c0,-9.94112 -8.0589,-18 -18,-18c-9.94112,0 -18,8.05888 -18,18c0,4.152 1.40577,7.9756 3.76732,11.021l3.96822,-14.9911c1.65118,-6.50646 5.94026,-9.87265 12.82606,-9.87265l2.3744,0c4.8425,0 8.399,4.54582 7.2338,9.24605c-0.2089,0.843 -0.5996,1.6301 -1.1445,2.3064l-2.0208,2.5077c-0.5185,0.6435 -0.7077,1.4918 -0.5115,2.2947l0.616,2.5217c0.3188,1.3052 0.2605,2.6742 -0.168,3.9476c-1.4578,4.3318 -5.5183,7.2496 -10.0889,7.2496l-6.6435,0c2.3576,1.1338 5.0003,1.769 7.7914,1.769z"/>
  <path id="svg_10" fill="#141624" d="m17.7,21.7592l-3.5068,0c-1.1185,0 -2.0964,0.7543 -2.3803,1.8361l-1.3756,5.2401l5.4337,0c2.0101,0 3.7674,-1.3555 4.2777,-3.2997l0.1179,-0.4492c0.4416,-1.6822 -0.8274,-3.3273 -2.5666,-3.3273zm-1.0354,1.5922l-1.9056,0c-0.6384,0 -1.1967,0.43 -1.3597,1.0474l-0.7507,2.8444l3.0046,0c1.1115,0 2.0832,-0.7455 2.3654,-1.8148l0.0652,-0.247c0.2442,-0.9252 -0.4575,-1.83 -1.4192,-1.83z" clipRule="evenodd" fillRule="evenodd"/>
  <path id="svg_11" fill="#141624" d="m14.9971,11.7427c0.284,-1.0818 1.2618,-1.83607 2.3803,-1.83607l3.5069,0c1.7392,0 3.0082,1.64507 2.5666,3.32727l-0.1179,0.4492c-0.5103,1.9442 -2.2676,3.2997 -4.2777,3.2997l-5.4337,0l1.3755,-5.2401zm1.5865,0.8035c0.1629,-0.6173 0.7213,-1.0474 1.3597,-1.0474l1.9056,0c0.9617,0 1.6634,0.9048 1.4192,1.83l-0.0652,0.247c-0.2822,1.0693 -1.2539,1.8149 -2.3654,1.8149l-3.0046,0l0.7507,-2.8445z" clipRule="evenodd" fillRule="evenodd"/>
  <path id="svg_14" fill="#141624" d="m85.26884,27.75178c-1.2354,0 -2.3556,-0.2945 -3.3604,-0.8836c-0.9883,-0.6055 -1.7708,-1.4318 -2.3473,-2.4791c-0.5765,-1.0473 -0.8648,-2.2336 -0.8648,-3.5591c0,-1.3254 0.28,-2.4954 0.8401,-3.51c0.5601,-1.0309 1.3178,-1.8409 2.2732,-2.43c0.9719,-0.5891 2.059,-0.8836 3.2615,-0.8836c0.9554,0 1.8037,0.18 2.545,0.54c0.7577,0.3436 1.4001,0.8182 1.9272,1.4236c0.5272,0.5891 0.9307,1.26 1.2108,2.0127c0.28,0.7364 0.42,1.4973 0.42,2.2828c0,0.1636 -0.0082,0.3518 -0.0247,0.5645c-0.0165,0.1964 -0.0412,0.4009 -0.0741,0.6136l-11.193,0l0,-1.7181l10.1305,0l-0.8895,0.7363c0.1483,-0.9 0.0412,-1.7018 -0.3212,-2.4054c-0.3459,-0.72 -0.8483,-1.2846 -1.5072,-1.6937c-0.6589,-0.4254 -1.4002,-0.6381 -2.2238,-0.6381c-0.8236,0 -1.5896,0.2127 -2.2979,0.6381c-0.6918,0.4255 -1.2354,1.0228 -1.6307,1.7919c-0.3954,0.7527 -0.5519,1.6527 -0.4695,2.7c-0.0824,1.0472 0.0824,1.9636 0.4942,2.749c0.4282,0.7691 1.0048,1.3664 1.7296,1.7919c0.7412,0.4254 1.5319,0.6381 2.372,0.6381c0.9718,0 1.7872,-0.229 2.4461,-0.6872c0.6589,-0.4582 1.1943,-1.0309 1.6061,-1.7182l1.5813,0.8345c-0.2635,0.5891 -0.6671,1.1373 -1.2107,1.6446c-0.5436,0.4909 -1.1942,0.8918 -1.952,1.2027c-0.7412,0.2946 -1.5648,0.4418 -2.4708,0.4418z"/>
  </g>
</svg>